<?xml version="1.0" standalone="no"?>
<!DOCTYPE svg PUBLIC "-//W3C//DTD SVG 20010904//EN"
 "http://www.w3.org/TR/2001/REC-SVG-20010904/DTD/svg10.dtd">
<svg version="1.0" xmlns="http://www.w3.org/2000/svg"
 width="260.000000pt" height="260.000000pt" viewBox="0 0 260.000000 260.000000"
 preserveAspectRatio="xMidYMid meet">
<metadata>
Created by potrace 1.11, written by Peter Selinger 2001-2013
</metadata>
<g transform="translate(0.000000,260.000000) scale(0.100000,-0.100000)"
fill="#000000" stroke="none">
<path d="M0 2572 c0 -15 5 -33 12 -40 16 -16 38 -81 38 -113 0 -14 -11 -36
-25 -49 -24 -23 -25 -28 -25 -147 0 -95 3 -123 13 -123 18 0 80 -75 90 -108 9
-32 0 -125 -16 -167 -6 -16 -28 -51 -49 -76 -35 -42 -38 -50 -38 -110 l0 -65
34 4 c24 3 47 -4 78 -22 55 -32 78 -80 78 -162 0 -53 -3 -63 -27 -86 -41 -38
-66 -48 -117 -48 l-46 0 1 -172 c1 -95 4 -161 6 -146 2 15 12 30 23 33 10 3
30 17 44 32 40 39 88 35 153 -13 43 -31 54 -47 68 -92 19 -58 15 -116 -9 -140
-20 -20 -182 -28 -215 -10 -24 13 -55 58 -64 94 -2 10 -5 -176 -6 -413 l-1
-433 488 0 487 0 45 58 c24 31 48 58 52 60 4 2 28 32 53 67 40 57 51 65 99 79
61 18 132 21 141 6 9 -15 37 -12 82 10 23 11 73 23 111 26 l69 7 38 -42 c41
-43 107 -81 144 -81 13 0 37 -10 54 -22 18 -13 44 -30 59 -38 15 -8 54 -41 87
-72 l60 -58 128 0 128 0 27 58 c31 63 79 102 127 102 15 0 49 -12 75 -26 l46
-26 0 764 c0 436 -4 768 -9 773 -18 20 -22 71 -6 85 13 10 15 45 15 217 0 200
-9 267 -31 232 -5 -8 -9 -24 -9 -36 0 -13 -10 -33 -21 -44 l-22 -22 -13 39
c-8 22 -14 66 -14 100 l0 61 55 24 55 24 0 56 c0 51 -2 57 -23 63 -36 9 -95
72 -108 116 l-12 40 -142 0 -143 0 -13 -45 c-7 -25 -17 -45 -22 -45 -4 0 -21
-9 -36 -21 -28 -20 -30 -21 -85 -5 -39 12 -68 29 -96 57 -22 22 -40 45 -40 50
0 5 -61 9 -139 9 l-140 0 15 -35 c26 -62 15 -157 -21 -181 -18 -12 -32 -12
-79 -3 -53 11 -59 15 -78 53 -11 23 -29 51 -41 63 l-20 22 27 41 26 40 -201 0
-201 0 32 -26 c61 -52 81 -161 37 -202 -43 -40 -131 -23 -184 36 -27 29 -33
44 -33 81 0 37 6 51 32 78 l32 33 -197 0 -197 0 22 -42 c30 -58 36 -140 12
-162 -57 -51 -82 -63 -135 -69 -53 -6 -59 -5 -101 27 -57 44 -74 93 -57 163 7
26 16 56 21 66 8 16 -2 17 -152 17 l-160 0 0 -28z m2173 -386 c54 -50 67 -90
49 -143 -7 -24 -19 -43 -26 -43 -7 0 -22 -11 -34 -25 -49 -57 -165 -11 -187
74 -10 38 17 111 54 148 31 31 39 34 71 29 23 -3 51 -19 73 -40z m-1051 -20
c36 -8 63 -78 55 -141 -7 -46 -25 -85 -41 -85 -5 0 -24 -11 -42 -25 -25 -19
-45 -25 -83 -25 -48 0 -51 2 -81 44 -25 37 -30 55 -30 100 0 33 4 56 11 56 5
0 17 16 25 35 12 29 19 35 47 36 17 1 43 5 57 9 25 8 30 7 82 -4z m592 -29 c6
-7 23 -21 39 -30 25 -16 27 -22 27 -81 l0 -63 -47 -37 c-61 -47 -111 -50 -154
-7 -27 27 -29 35 -29 101 0 71 16 122 42 134 22 10 110 -3 122 -17z m-1169
-41 c22 -17 36 -41 49 -84 24 -79 16 -119 -34 -174 -22 -23 -40 -49 -40 -58 0
-8 15 -31 33 -51 72 -80 108 -143 114 -201 6 -59 -12 -110 -45 -126 -9 -5 -51
-14 -92 -21 -65 -10 -81 -9 -113 4 -20 8 -37 16 -37 18 -8 53 -17 209 -13 229
3 17 18 36 38 48 25 16 34 29 39 61 9 53 -9 75 -70 84 -40 6 -47 11 -61 42
-14 34 -13 52 3 136 8 41 34 35 34 -8 0 -49 29 -76 72 -69 41 8 58 28 58 68 0
40 -7 49 -50 66 -53 20 -56 27 -19 44 52 22 98 19 134 -8z m1739 -311 c9 -13
16 -32 16 -42 0 -10 7 -31 15 -47 21 -40 19 -61 -10 -90 -29 -29 -55 -38 -107
-38 -50 1 -78 10 -78 26 0 7 -9 22 -20 34 -43 46 -4 166 57 175 79 12 110 7
127 -18z m-543 -89 c70 -30 129 -117 129 -191 0 -56 -22 -90 -76 -118 -69 -35
-225 15 -239 77 -17 71 -9 112 30 153 19 20 35 41 35 45 0 7 64 44 81 47 4 1
22 -5 40 -13z m594 -467 c8 -8 18 -42 21 -76 5 -48 3 -67 -11 -90 -23 -39 -64
-63 -110 -63 -123 0 -148 116 -50 238 14 18 130 11 150 -9z"/>
<path d="M1452 140 c0 -14 2 -19 5 -12 2 6 2 18 0 25 -3 6 -5 1 -5 -13z"/>
</g>
</svg>
